<?xml version="1.0" encoding="iso-8859-1"?>
<!-- Generator: Adobe Illustrator 19.0.0, SVG Export Plug-In . SVG Version: 6.00 Build 0)  -->
<svg version="1.1" id="Layer_1" xmlns="http://www.w3.org/2000/svg" xmlns:xlink="http://www.w3.org/1999/xlink" x="0px" y="0px"
	 viewBox="0 0 512 512" style="enable-background:new 0 0 512 512;" xml:space="preserve">
<path style="fill:#EDEDED;" d="M448,489.739H69.565c-24.588,0-44.522-19.934-44.522-44.522V66.783
	c0-24.588,19.933-44.522,44.522-44.522H448c24.588,0,44.522,19.933,44.522,44.522v378.435
	C492.522,469.806,472.589,489.739,448,489.739z"/>
<path style="fill:#FFBD7C;" d="M492.522,346.156v99.061c0,24.588-19.932,44.522-44.522,44.522H69.565
	c-24.588,0-44.522-19.934-44.522-44.522V257.113h64c0.365,0,0.708-0.179,0.915-0.48l99.843-144.216h76.733L422.03,345.661
	c0.207,0.309,0.554,0.495,0.926,0.495H492.522z"/>
<path style="fill:#C1EBF7;" d="M492.522,223.722v221.496c0,24.588-19.932,44.522-44.522,44.522H69.565
	c-24.588,0-44.522-19.934-44.522-44.522v-32.278h86.261c0.377,0,0.729-0.191,0.935-0.509l122.105-188.709H492.522z"/>
<path style="fill:#73A4BC;" d="M512,222.609c0,4.61-3.736,8.348-8.348,8.348H238.28L118.313,416.361
	c-1.538,2.377-4.177,3.813-7.009,3.813H8.348c-4.611,0-8.348-3.738-8.348-8.348c0-4.61,3.736-8.348,8.348-8.348h98.415
	L226.73,218.074c1.538-2.377,4.177-3.813,7.009-3.813h269.913C508.263,214.261,512,217.998,512,222.609z"/>
<path style="fill:#FF6029;" d="M512,345.043c0,4.61-3.736,8.348-8.348,8.348h-80.696c-2.792,0-5.398-1.395-6.945-3.718
	L262.663,119.652h-69.071L95.907,260.752c-1.558,2.252-4.124,3.596-6.863,3.596H8.348C3.736,264.348,0,260.61,0,256
	s3.736-8.348,8.348-8.348h76.321l97.685-141.099c1.558-2.252,4.124-3.596,6.863-3.596h77.913c2.792,0,5.398,1.395,6.945,3.718
	l153.348,230.022h76.228C508.263,336.696,512,340.433,512,345.043z"/>
<path style="fill:#B7441C;" d="M111.304,256c0,12.295-9.966,22.261-22.261,22.261S66.783,268.295,66.783,256
	c0-12.295,9.966-22.261,22.261-22.261S111.304,243.705,111.304,256z M189.217,89.043c-12.295,0-22.261,9.966-22.261,22.261
	s9.966,22.261,22.261,22.261c12.295,0,22.261-9.966,22.261-22.261S201.512,89.043,189.217,89.043z M267.13,89.043
	c-12.295,0-22.261,9.966-22.261,22.261s9.966,22.261,22.261,22.261c12.295,0,22.261-9.966,22.261-22.261
	S279.425,89.043,267.13,89.043z M422.957,322.783c-12.295,0-22.261,9.966-22.261,22.261c0,12.295,9.966,22.261,22.261,22.261
	c12.295,0,22.261-9.966,22.261-22.261C445.217,332.749,435.251,322.783,422.957,322.783z"/>
<path style="fill:#56889B;" d="M133.565,411.826c0,12.295-9.966,22.261-22.261,22.261s-22.261-9.966-22.261-22.261
	c0-12.295,9.966-22.261,22.261-22.261S133.565,399.531,133.565,411.826z M233.739,200.348c-12.295,0-22.261,9.966-22.261,22.261
	c0,12.295,9.966,22.261,22.261,22.261S256,234.903,256,222.609C256,210.314,246.034,200.348,233.739,200.348z"/>
<g>
</g>
<g>
</g>
<g>
</g>
<g>
</g>
<g>
</g>
<g>
</g>
<g>
</g>
<g>
</g>
<g>
</g>
<g>
</g>
<g>
</g>
<g>
</g>
<g>
</g>
<g>
</g>
<g>
</g>
</svg>
